<?xml version="1.0" encoding="iso-8859-1"?>
<!-- Generator: Adobe Illustrator 16.0.0, SVG Export Plug-In . SVG Version: 6.00 Build 0)  -->
<!DOCTYPE svg PUBLIC "-//W3C//DTD SVG 1.1//EN" "http://www.w3.org/Graphics/SVG/1.1/DTD/svg11.dtd">
<svg version="1.1" id="Layer_1" xmlns="http://www.w3.org/2000/svg" xmlns:xlink="http://www.w3.org/1999/xlink" x="0px" y="0px"
	 width="23.986px" height="24px" viewBox="0 0 23.986 24" style="enable-background:new 0 0 23.986 24;" xml:space="preserve">
<path style="fill:#43C3DE;" d="M6.477,10.805c-1.246,0.408-1.474,1.411-1.399,2.064c0.072,0.638,0.698,1.494,1.859,1.494
	c1.845,0,2.667-2.366,2.431-3.635C9.213,9.895,8.831,8.961,8.831,8.961s-0.28,1.665-0.733,2.195
	C8.098,11.157,7.359,10.516,6.477,10.805z"/>
<path style="fill:#43C3DE;" d="M6.302,6.195c0-0.609-0.985-1.035-1.92-1.035c-0.873,0-1.822,0.651-1.822,1.533
	s0.9,1.714,2.443,1.714c1.814,0,2.596-1.08,3.094-1.551c0,0,0.496,0.387,1.104,0.387c0.688,0,1.286-0.403,1.286-1.225
	c0-0.515-0.424-0.997-1.275-0.997c-1.171,0-1.963,1.134-2.646,1.691C5.92,7.242,5.135,7.268,4.859,7.218
	C4.143,7.09,4.442,6.896,4.651,6.931c0.062,0.01,0.453,0.076,0.453,0.076C5.874,7.007,6.302,6.693,6.302,6.195z"/>
<path style="fill:#43C3DE;" d="M12.291,3.902c0.641,0,0.837,0.365,0.837,0.689c0,0.538-0.555,1.15-1.486,1.15
	c-0.761,0-1.151-0.278-1.151-0.724C10.491,4.449,11.497,3.902,12.291,3.902z"/>
<path style="fill:#43C3DE;" d="M13.128,3.958l0.344,0.608c0,0,7.214-2.925,7.41-3.012c0.194-0.084,0.558-0.145,0.558-0.42
	c0-0.276-0.575-0.635-0.981-0.635c-0.405,0-2.14,0.095-3.296,0.619C16.006,1.644,13.621,3.445,13.128,3.958z"/>
<path style="fill:#43C3DE;" d="M3.466,11.745c0.415-0.125,0.91-0.056,1.082,0.332c0.283,0.64,0.642,1.718,0.97,3.161
	c0.333,1.465,0.41,2.329,0.477,3.325c0.062,0.92-0.414,1.308-0.682,1.311c-0.176,0.001-0.656-0.426-1.271-2.082
	c-0.447-1.201-0.72-2.282-0.83-2.917c-0.179-1.041-0.357-1.893-0.331-2.511C2.895,12.032,3.133,11.846,3.466,11.745z"/>
<path style="fill:#43C3DE;" d="M8.833,13.821c0.838-0.868,0.952-2.129,1.102-1.732c0.248,0.655,0.989,5.6,1.236,7.058
	c0.231,1.363,0.276,1.932,0.29,3.062c0.011,0.923-0.398,1.31-0.64,1.291c-0.267-0.022-0.909-1.016-1.36-2.724
	c-0.331-1.249-1.427-5.593-1.363-6.255c0.013-0.139,0.053-0.152,0.139-0.205C8.354,14.245,8.573,14.091,8.833,13.821z"/>
<path style="fill:#43C3DE;" d="M7.234,4.371c0,0,0.007,0.609-0.479,1.054c0,0-1.902-0.099-2.523-1.29c0,0,1.087,0.406,1.976,0.406
	C7.096,4.542,7.234,4.371,7.234,4.371z"/>
<path style="fill:#43C3DE;" d="M7.253,3.112c0,0,0.082-1.662-1.896-1.662c-0.935,0-1.593,0.539-1.593,1.253
	c0,0.716,0.572,1.54,2.161,1.54c1.589,0,2.173-0.641,2.173-0.641V3.236c0,0-1.114,0.386-1.743,0.146
	c-0.122-0.047-0.148-0.113-0.02-0.101C6.567,3.304,7.17,3.21,7.253,3.112z"/>
<path style="fill:#43C3DE;" d="M8.117,7.244l0.524,1.324c0,0-0.602,1.276-2.377,2.103c-0.433,0.202-0.968,0.284-0.968,0.284
	S3.94,9.677,3.361,8.408c0,0,1.443,0.572,2.778,0.165C7.475,8.167,8.117,7.244,8.117,7.244z"/>
<circle style="fill:#43C3DE;" cx="11.745" cy="7.908" r="0.852"/>
</svg>
