<?xml version="1.0" encoding="utf-8"?>
<!-- Generator: Adobe Illustrator 16.0.0, SVG Export Plug-In . SVG Version: 6.00 Build 0)  -->
<!DOCTYPE svg PUBLIC "-//W3C//DTD SVG 1.1//EN" "http://www.w3.org/Graphics/SVG/1.1/DTD/svg11.dtd">
<svg version="1.1" id="svg2" xmlns="http://www.w3.org/2000/svg" xmlns:xlink="http://www.w3.org/1999/xlink" x="0px" y="0px"
	 width="36px" height="14.272px" viewBox="0 0 36 14.272" enable-background="new 0 0 36 14.272" xml:space="preserve">
<path id="path6" fill="#FFFFFF" d="M9.99,0.001L0,14.272h5.25l2.837-4.054l3.724,0.001l2.707-3.867l-3.724,0.004l1.865-2.667
	C15.798,3.69,18.142,1.872,20,0L9.99,0.001z"/>
<polygon fill="#FFFFFF" points="35.973,0.518 36,0.481 24.213,0.001 17.057,10.222 21.085,10.036 18.117,14.272 26.721,13.728 
	26.746,13.692 19.871,13.235 19.897,13.2 27.437,12.707 27.463,12.667 20.596,12.213 20.618,12.175 28.154,11.682 28.178,11.646 
	21.312,11.189 21.344,11.152 28.869,10.662 28.894,10.625 21.637,10.01 29.582,9.643 29.609,9.605 18.837,9.177 18.864,9.139 
	30.291,8.632 30.315,8.598 19.547,8.164 19.573,8.126 31.005,7.612 31.031,7.577 20.261,7.151 20.275,7.116 31.716,6.599 
	31.735,6.567 20.968,6.135 20.99,6.103 32.425,5.584 32.447,5.551 21.676,5.124 21.699,5.09 33.136,4.57 33.16,4.535 22.386,4.108 
	22.412,4.072 33.845,3.559 33.868,3.522 23.096,3.096 23.119,3.062 34.557,2.541 34.582,2.504 23.807,2.08 23.832,2.043 
	35.266,1.529 35.29,1.495 24.516,1.067 24.541,1.033 "/>
</svg>
