<?xml version="1.0" encoding="utf-8"?>
<svg version="1.1" id="Layer_1" xmlns="http://www.w3.org/2000/svg" xmlns:xlink="http://www.w3.org/1999/xlink" x="0px" y="0px"
	 viewBox="0 0 544 340" enable-background="new 0 0 544 340" xml:space="preserve">
<g>
	<path fill="#FFFFFF" d="M273.5,0h-3H0v71.4v3v49.7v3v85.7v3v49.8v3V340h270.5h3H544v-71.4v-3v-49.8v-3v-85.7v-3V74.4v-3V0H273.5z
		 M541,11.3c-4.2-0.8-7.5-4.1-8.3-8.3h8.3V11.3z M270.5,173.7v36.2c-21.3-0.8-38.4-18.4-38.4-39.9c0-21.5,17.1-39.1,38.4-39.9v36.2
		c-1.5,0.6-2.5,2-2.5,3.7C268,171.7,269,173.1,270.5,173.7z M273.5,173.7c1.5-0.6,2.5-2,2.5-3.7c0-1.7-1-3.1-2.5-3.7v-36.2
		c21.3,0.8,38.4,18.4,38.4,39.9c0,21.5-17.1,39.1-38.4,39.9V173.7z M11.3,3c-0.8,4.2-4.1,7.5-8.3,8.3V3H11.3z M3,127.1h28v85.7H3
		V127.1z M3,215.9h31v-91.7H3V74.4h90.7v191.2H3V215.9z M3,328.7c4.2,0.8,7.5,4.1,8.3,8.3H3V328.7z M14.3,337
		c-0.9-5.8-5.5-10.5-11.3-11.3v-57.1h93.7v-71.5c10.1-5.8,16.4-16,16.4-27.1c0-11-6.3-21.3-16.4-27.1V71.4H3V14.3
		C8.8,13.5,13.5,8.8,14.3,3h256.2v124.1c-23,0.8-41.4,19.7-41.4,42.9c0,23.2,18.5,42.1,41.4,42.9V337H14.3z M96.7,146.4
		c8.3,5.3,13.4,14.2,13.4,23.6c0,9.4-5.1,18.2-13.4,23.6V146.4z M532.7,337c0.8-4.2,4.1-7.5,8.3-8.3v8.3H532.7z M541,212.9h-28
		v-85.7h28V212.9z M541,124.1h-31v91.7h31v49.8h-90.7V74.4H541V124.1z M447.3,71.4v71.5c-10.1,5.8-16.4,16-16.4,27.1
		c0,11,6.3,21.3,16.4,27.1v71.5H541v57.1c-5.8,0.9-10.5,5.5-11.3,11.3H273.5V212.9c23-0.8,41.4-19.7,41.4-42.9
		c0-23.2-18.5-42.1-41.4-42.9V3h256.2c0.9,5.8,5.5,10.5,11.3,11.3v57.1H447.3z M447.3,193.6c-8.3-5.3-13.4-14.2-13.4-23.6
		c0-9.4,5.1-18.2,13.4-23.6V193.6z"/>
	<path fill="#FFFFFF" d="M64.4,166c-2.2,0-4,1.8-4,4c0,2.2,1.8,4,4,4c2.2,0,4-1.8,4-4C68.4,167.8,66.6,166,64.4,166z"/>
	<path fill="#FFFFFF" d="M479.6,174c2.2,0,4-1.8,4-4c0-2.2-1.8-4-4-4c-2.2,0-4,1.8-4,4C475.6,172.2,477.4,174,479.6,174z"/>
</g>
</svg>
