<?xml version="1.0" encoding="iso-8859-1"?>
<!-- Generator: Adobe Illustrator 19.2.0, SVG Export Plug-In . SVG Version: 6.00 Build 0)  -->
<svg version="1.1" id="Layer_1" xmlns="http://www.w3.org/2000/svg" xmlns:xlink="http://www.w3.org/1999/xlink" x="0px" y="0px"
	 viewBox="0 0 32 32" style="enable-background:new 0 0 32 32;" xml:space="preserve">
<g>
	<g>
	</g>
	<rect x="19.554" y="22.221" style="fill:#C31B0F;" width="9.553" height="2.768"/>
	<rect x="22.946" y="18.829" style="fill:#C31B0F;" width="2.769" height="9.552"/>
	<g>
		<path style="fill:#006dcc;" d="M7.12,16.754c-0.321-0.636-0.507-1.551-0.507-2.311c0-2.598,2.111-4.906,4.71-4.906h9.647v4.199
			l8.068-5.23L20.97,3.274v3.729h-9.647c-4.167,0-7.556,3.43-7.556,7.596c0,1.331,0.347,2.601,0.956,3.689L7.12,16.754z"/>
		<polygon style="fill:#006AFF;" points="18.239,22.465 10.837,22.465 10.837,18.264 2.77,23.496 10.837,28.726 10.837,24.998 
			18.239,24.998 		"/>
	</g>
</g>
</svg>
